<?xml version="1.0" standalone="no"?><!DOCTYPE svg PUBLIC "-//W3C//DTD SVG 1.1//EN" "http://www.w3.org/Graphics/SVG/1.1/DTD/svg11.dtd"><svg t="1609675630654" class="icon" viewBox="0 0 1024 1024" version="1.1" xmlns="http://www.w3.org/2000/svg" p-id="17010" xmlns:xlink="http://www.w3.org/1999/xlink" width="32" height="32"><defs><style type="text/css"></style></defs><path d="M399.17 302.18m-118.64 0a118.64 118.64 0 1 0 237.28 0 118.64 118.64 0 1 0-237.28 0Z" fill="#22A1E0" p-id="17011"></path><path d="M618.18 703.29c0.85 6.61-1.49 13.25-6.35 17.8-55.57 52.08-130.29 83.97-212.46 83.97-82.37 0-157.24-32.04-212.84-84.34-4.97-4.67-7.25-11.5-6.24-18.24 24.07-161.78 112.88-281.66 218.9-281.66 108.22 0.01 198.35 121.23 218.99 282.47z" fill="#22A1E0" p-id="17012"></path><path d="M608.07 352.81m-112.88 0a112.88 112.88 0 1 0 225.76 0 112.88 112.88 0 1 0-225.76 0Z" fill="#22A1E0" p-id="17013"></path><path d="M608.07 469.14c-64.14 0-116.33-52.18-116.33-116.33s52.18-116.33 116.33-116.33S724.4 288.66 724.4 352.81s-52.19 116.33-116.33 116.33z m0-225.75c-60.33 0-109.42 49.09-109.42 109.42s49.09 109.42 109.42 109.42 109.42-49.09 109.42-109.42-49.09-109.42-109.42-109.42z" fill="#FFFFFF" p-id="17014"></path><path d="M608.07 466.02c-62.42 0-113.21-50.78-113.21-113.21S545.64 239.6 608.07 239.6s113.21 50.78 113.21 113.21-50.8 113.21-113.21 113.21z m0-225.76c-62.06 0-112.54 50.49-112.54 112.54s50.49 112.54 112.54 112.54c62.06 0 112.54-50.49 112.54-112.54s-50.49-112.54-112.54-112.54z" fill="#FFFFFF" p-id="17015"></path><path d="M816.43 734.42c0.8 6.29-1.42 12.6-6.05 16.94-52.86 49.55-123.96 79.9-202.14 79.9-78.36 0-149.6-30.48-202.5-80.24-4.72-4.44-6.89-10.94-5.94-17.36 22.9-153.91 107.39-267.97 208.25-267.97 102.99-0.01 188.74 115.32 208.38 268.73z" fill="#22A1E0" p-id="17016"></path><path d="M608.25 834.71c-76.46 0-149.21-28.83-204.86-81.18-5.5-5.18-8.12-12.8-6.99-20.38 11.27-75.77 38.11-144.42 75.57-193.29 18.83-24.57 39.86-43.73 62.49-56.92 23.55-13.73 48.32-20.69 73.61-20.69 25.8 0 51.02 7.02 74.97 20.88 23.02 13.32 44.29 32.6 63.21 57.31 37.81 49.38 63.95 118.12 73.61 193.56 0.95 7.4-1.71 14.84-7.11 19.9-55.62 52.1-128.24 80.81-204.5 80.81z m-0.18-365.58c-47.9 0-93.07 25.9-130.62 74.91-36.76 47.97-63.12 115.48-74.21 190.1-0.79 5.35 1.04 10.7 4.89 14.33 54.37 51.14 125.44 79.31 200.13 79.31 74.5 0 145.45-28.04 199.77-78.95 3.78-3.55 5.65-8.77 4.97-13.97-9.5-74.25-35.16-141.81-72.24-190.23-37.28-48.68-84.41-75.5-132.69-75.5z" fill="#FFFFFF" p-id="17017"></path><path d="M608.25 831.58c-75.66 0-147.66-28.53-202.72-80.34-4.76-4.47-7.02-11.07-6.04-17.64 11.2-75.26 37.82-143.39 74.96-191.85 18.58-24.25 39.3-43.13 61.59-56.13 23.07-13.45 47.3-20.27 72.04-20.27 25.24 0 49.94 6.88 73.4 20.46 22.66 13.11 43.62 32.13 62.29 56.51 37.48 48.95 63.41 117.15 73 192.06 0.82 6.41-1.48 12.84-6.14 17.22-55.05 51.57-126.92 79.98-202.38 79.98z m-0.18-365.56c-48.91 0-94.93 26.32-133.1 76.14-37.07 48.38-63.64 116.4-74.83 191.55-0.95 6.36 1.24 12.74 5.84 17.07 54.94 51.69 126.78 80.15 202.27 80.15 75.29 0 147-28.34 201.91-79.8 4.52-4.23 6.74-10.46 5.94-16.65-9.57-74.79-35.44-142.88-72.86-191.74-37.89-49.48-85.9-76.72-135.17-76.72z" fill="#FFFFFF" p-id="17018"></path></svg>